<svg xmlns="http://www.w3.org/2000/svg"
	xmlns:xlink="http://www.w3.org/1999/xlink" x="0px" y="0px" viewBox="0 0 100 100" style="enable-background:new 0 0 100 100;" xml:space="preserve">
	<style type="text/css">
	.fav-0{fill:#1A87C7;}
	.fav-1{fill:#00895A;}
	.fav-2{fill:#35508A;}
	.fav-3{fill:#FFCC05;}
	.fav-4{fill:#F7931E;}
	.fav-5{fill:#F7C314;}
	.fav-6{fill:#71BF45;}
	.fav-7{fill:#EE5BA1;}
	.fav-8{fill:#D92728;}
	.fav-9{fill:#F7941D;}
	</style>
	<g>
		<g>
			<path class="fav-0" d="M34.4,64.3c-0.5,1.8-1,3.1-2.1,4.4c-9.5,2.4-16.7,6.3-23.1,9.8C17.5,70.4,24.9,66.6,34.4,64.3z"/>
			<path class="fav-0" d="M49.6,66.6c-1.7,0-1.8-0.1-3.5,0c0-1.2,0.2-2.2,0.6-3.7c1.3,0,1,0.1,2.3,0.1C49.2,64.4,49.7,65.5,49.6,66.6
			L49.6,66.6z"/>
			<path class="fav-0" d="M86.9,79.9c-9.3-7.2-16.8-11-25.6-12.6c0.2-1,0.2-1.7,0.6-2.7C74.5,67.4,83.1,73.8,86.9,79.9z"/>
			<g>
				<path class="fav-1" d="M58.4,55.3c0,1.7-1.5,3.2-3.2,3.2c-1.8,0-3.2-1.5-3.2-3.2c0-1.7,1.5-3.2,3.2-3.2S58.4,53.6,58.4,55.3z"/>
				<path class="fav-1" d="M71.4,48.2c-0.9,0.9-1.7,1.7-2.4,2.6c-1.2,1.3-2.3,2.7-3.3,4c-2.3,3.3-4,6.5-5.1,9.5c-0.4,1-0.7,2.1-1,3.1
				c-3.1,10.5-0.7,18.8-0.7,19c-0.2-0.4-6.1-9.8-6.3-13.9c-2.3,2.9-6.6,3.4-6.6,3.4s4.1-3.8,4.4-9.4c0-1.1-0.1-2.3-0.5-3.5
				c-0.4-1.6-1.2-3.2-2.4-4.8c-0.9-1.2-2-2.4-3.3-3.7c1.5,1,2.7,1.8,3.8,2.6c8.3,5.6,8.5,4.5,17.4-3.7c1.1-1,2.2-2,3.5-3.2
				C69.7,49.8,70.6,49.1,71.4,48.2L71.4,48.2z"/>
			</g>
			<path class="fav-2" d="M58.2,42.2c-0.6,0.5-1.1,1.1-1.6,1.6c-4.3,4.5-7.1,9-8.8,13.4c-1.1-0.7-2.3-1.6-3.8-2.6
			c1.3,1.2,2.4,2.4,3.3,3.7c-0.6,1.6-1.1,3.3-1.5,4.8c-0.4,1.3-0.6,2.6-0.7,3.8c-1.1,7.8,0.4,13.4,0.5,13.7
			c-0.2-0.4-5.4-8.5-6.2-13.1c-0.1-0.4-0.1-0.6-0.1-1c-0.4,0.4-0.7,0.7-1.2,1.2c-3.1,2.4-8.8,4.8-9,4.8c0.1-0.1,2.3-1.5,4.4-3.8
			c1.1-1.2,2.2-2.8,2.9-4.6c1.3-3.3,1.2-7.4-2.2-12c0,0-0.2-0.2-0.6-0.7c-0.7-0.7-1.8-2-2.6-2.7c1,0.7,2.9,2.1,2.9,2.1
			c10.2,7.2,8.9,4.9,22.6-7C57,43.2,57.6,42.7,58.2,42.2L58.2,42.2z"/>
			<path class="fav-2" d="M45.2,49.3c0,1.7-1.5,3.2-3.2,3.2c-1.8,0-3.2-1.5-3.2-3.2c0-1.7,1.5-3.2,3.2-3.2
			C43.7,46.1,45.2,47.6,45.2,49.3z"/>
			<path class="fav-3" d="M68.5,48.9c-1.3,1.1-2.6,2.2-3.7,3.2c-1.2-3.1-4.1-6-6.8-7.8c0.4-1.2,0.9-2.6,0.9-2.6s-1.7,0.9-2.8,1.5
			c-7.7-3.4-17.2-1.6-22,7.1c0,0-3.1-1.6-4-2.3c0.9,0.7,2.6,3.4,3.3,4.1c-1.6,3.3-2.2,6.8-1.8,12c-2,0.6-4.9,1.5-4.9,1.5
			S23.6,38,48.7,37.2C60.8,37.8,65.9,43.9,68.5,48.9L68.5,48.9z"/>
			<path class="fav-3" d="M70.6,65.8c0,0-3.4-1.1-4.9-1.5c0.9-3.5,1.1-5.7,0.5-8.3c1-1.3,2.1-2.2,3.3-3.5
			C72.1,56.8,70.6,65.8,70.6,65.8z"/>
			<path class="fav-4" d="M25.3,65.7c-2.4,1.2-6,3.1-6,3.1s-5.9-38.8,29.4-38.9C83.8,29.7,78,69.2,78,69.2s-4.9-2.6-5.9-3.2
			C79.1,28.6,21.9,23,25.3,65.7L25.3,65.7z"/>
			<path class="fav-0" d="M36.4,30.5c0,0-5.1-8.5-9.5-11.7c-0.4-2.2,1.5-3.7,2.4-3.4c0.5,1.1,5.4-5,8.9,6.5
			C40.9,30.9,36.4,30.5,36.4,30.5L36.4,30.5z"/>
			<path class="fav-5" d="M23.5,39.7c0,0-7.8,1.7-13.3-3.2c-1.7-1.5-2-3.2-1-3.7c-0.9-3.5,2.4-4.9,9-0.7C28.7,34.4,23.5,39.7,23.5,39.7
			z"/>
			<path class="fav-6" d="M17.8,53.6c0,0-5.4,3.5-11.2,1.7c-1.8-0.6-4-1-4-1.8c0.9-2.8,2.1-4.9,8.5-3.8C19.9,48.1,17.8,53.6,17.8,53.6
			L17.8,53.6z"/>
			<path class="fav-7" d="M74.6,38.2c0,0,7.6-4.6,11.5-9c0.7-2,0.1-1.7-0.9-1.7c-1-3.4-5.9-3.2-9.4,0.6C68,35,74.6,38.2,74.6,38.2z"/>
			<path class="fav-8" d="M81.2,55c0,0,6,2.4,11.3-0.7c1.5,1.5,5.1-0.5,4.9-1.3c-1.5-2.6-4.4-5.7-10.5-3.3C78,50.2,81.2,55,81.2,55
			L81.2,55z"/>
			<path class="fav-9" d="M52.6,19.5c0,0-0.9-4,2.7-5.7c3.5-1.6,6.2,6.6,5.2,8.4c0.7,0.4-2.4,5.2-3.5,7.2c-4.3,0.2-4.5-7.2-4.5-7.2
			L52.6,19.5L52.6,19.5z"/>
		</g>
	</g>
</svg>
