<svg xmlns="http://www.w3.org/2000/svg" viewBox="0 0 1920 51.07"><title>Asset 8</title><g id="Layer_2" data-name="Layer 2"><g id="Layer_1-2" data-name="Layer 1"><path d="M1920,18.67v32.4H0V17.16s12.39,6,19.43-3.4S30.91-1.5,40.3.33c0,0,6.53.77,11.22,9.19S62,18.85,67.43,19c0,0,6.4,1.25,12.79-8.15,0,0,5.87-10.44,16.3-10.89,0,0,8,.2,16.18,12.33a16.86,16.86,0,0,0,6.75,6.09c4.21,1,11.14,1.51,15.77-4.66,7-9.39,11.48-15.26,20.87-13.43,0,0,6.52.77,11.21,9.19s10.44,9.33,15.92,9.52c0,0,6.39,1.25,12.78-8.15,0,0,5.87-10.44,16.3-10.89,0,0,8,.2,16.18,12.33a17.68,17.68,0,0,0,5.63,5.5c3.63,1.25,12.3,3.22,17.76-4.07,7-9.39,11.48-15.26,20.87-13.43,0,0,6.52.77,11.22,9.19s10.43,9.33,15.91,9.52c0,0,6.39,1.25,12.78-8.15,0,0,5.87-10.44,16.31-10.89,0,0,8,.2,16.17,12.33a17.06,17.06,0,0,0,6.66,6h0C356,19.46,363,20,367.7,13.76c7-9.39,11.47-15.26,20.87-13.43,0,0,6.52.77,11.21,9.19S410.22,18.85,415.7,19c0,0,6.39,1.25,12.78-8.15,0,0,5.87-10.44,16.3-10.89,0,0,8,.2,16.18,12.33a17.32,17.32,0,0,0,6.15,5.79c4,1.21,11.8,2.37,16.85-4.36C491,4.37,495.43-1.5,504.83.33c0,0,6.52.77,11.21,9.19S526.48,18.85,532,19c0,0,6.39,1.25,12.78-8.15,0,0,5.87-10.44,16.3-10.89,0,0,8,.2,16.18,12.33A17,17,0,0,0,584,18.42c4.21,1,11.15,1.52,15.78-4.66,7-9.39,11.48-15.26,20.87-13.43,0,0,6.52.77,11.22,9.19s10.43,9.33,15.91,9.52c0,0,6.39,1.25,12.78-8.15,0,0,5.87-10.44,16.31-10.89,0,0,7.95.2,16.17,12.33a17.52,17.52,0,0,0,5.62,5.49c3.61,1.25,12.3,3.24,17.77-4.06,7-9.39,11.48-15.26,20.87-13.43,0,0,6.52.77,11.22,9.19s10.43,9.33,15.91,9.52c0,0,6.39,1.25,12.78-8.15,0,0,5.87-10.44,16.31-10.89,0,0,7.95.2,16.17,12.33a17.06,17.06,0,0,0,6.66,6h0c4.2,1.07,11.22,1.6,15.89-4.63,7-9.39,11.48-15.26,20.87-13.43,0,0,6.52.77,11.21,9.19s10.44,9.33,15.92,9.52c0,0,6.39,1.25,12.78-8.15,0,0,5.87-10.44,16.3-10.89,0,0,8,.2,16.18,12.33a16.6,16.6,0,0,0,7.14,6.25c4.25.92,10.67,1,15-4.82C954.7,4.37,959.13-1.5,968.52.33c0,0,6.52.77,11.22,9.19s10.43,9.33,15.91,9.52c0,0,6.39,1.25,12.78-8.15,0,0,5.87-10.44,16.31-10.89,0,0,8,.2,16.17,12.33a16.87,16.87,0,0,0,6.74,6.08c4.21,1.05,11.15,1.53,15.78-4.65,7-9.39,11.48-15.26,20.87-13.43,0,0,6.53.77,11.22,9.19S1106,18.85,1111.43,19c0,0,6.4,1.25,12.79-8.15,0,0,5.87-10.44,16.3-10.89,0,0,8,.2,16.18,12.33a17.52,17.52,0,0,0,5.62,5.49l0,0c3.65,1.25,12.28,3.18,17.72-4.08,7-9.39,11.48-15.26,20.87-13.43,0,0,6.52.77,11.21,9.19s10.44,9.33,15.92,9.52c0,0,6.39,1.25,12.78-8.15,0,0,5.87-10.44,16.3-10.89,0,0,8,.2,16.18,12.33a17.06,17.06,0,0,0,6.66,6h0c4.2,1.07,11.21,1.6,15.88-4.63,7-9.39,11.48-15.26,20.87-13.43,0,0,6.52.77,11.22,9.19s10.43,9.33,15.91,9.52c0,0,6.39,1.25,12.79-8.15,0,0,5.87-10.44,16.3-10.89,0,0,8,.2,16.17,12.33a17.42,17.42,0,0,0,6.1,5.77h0c4,1.21,11.82,2.4,16.87-4.35,7-9.39,11.48-15.26,20.87-13.43,0,0,6.53.77,11.22,9.19s10.44,9.33,15.91,9.52c0,0,6.4,1.25,12.79-8.15,0,0,5.87-10.44,16.3-10.89,0,0,8,.2,16.17,12.33a16.87,16.87,0,0,0,6.74,6.08c4.21,1.05,11.15,1.53,15.79-4.65,7-9.39,11.47-15.26,20.87-13.43,0,0,6.52.77,11.21,9.19S1570.48,18.85,1576,19c0,0,6.39,1.25,12.78-8.15,0,0,5.87-10.44,16.3-10.89,0,0,8,.2,16.18,12.33a17.62,17.62,0,0,0,5.62,5.49c3.62,1.26,12.31,3.23,17.77-4.06,7-9.39,11.48-15.26,20.87-13.43,0,0,6.52.77,11.22,9.19s10.43,9.33,15.91,9.52c0,0,6.39,1.25,12.78-8.15,0,0,5.87-10.44,16.31-10.89,0,0,8,.2,16.17,12.33a17.06,17.06,0,0,0,6.66,6h0c4.2,1.07,11.21,1.6,15.88-4.63,7-9.39,11.48-15.26,20.87-13.43,0,0,6.53.77,11.22,9.19S1803,18.85,1808.43,19c0,0,6.4,1.25,12.79-8.15,0,0,5.87-10.44,16.3-10.89,0,0,8,.2,16.18,12.33a16.72,16.72,0,0,0,7,6.17c4.24,1,10.9,1.25,15.39-4.74,7-9.39,11.48-15.26,20.87-13.43,0,0,6.52.77,11.22,9.19,3.55,6.36,7.69,8.43,11.87,9.15"/></g></g></svg>