<svg xmlns="http://www.w3.org/2000/svg" x="0px" y="0px" viewBox="0 0 1920 113" style="enable-background:new 0 0 1920 113;" xml:space="preserve"><g>	<path d="M28.1,0.6c-1.8,0-3.6,0-5.4,0c-2.5,1.3-5.4,2.2-7.5,4c-2.6,2.2-4.4,5.1-6.8,7.6c-2.7,2.7-5.6,5.2-8.4,7.8v92.6  h1920c0-30.5,0-61,0-91.5c-6.3,1.3-11.5-0.8-15.7-5.5c-1.4-1.5-2.7-3.1-3.9-4.8c-3.3-4.6-7.2-8.5-12.8-10.2h-5.9  c-5.6,1.6-9.3,5.4-12.7,9.8c-1.9,2.6-4,5.1-6.4,7.2c-5.8,5.2-14.4,5.2-20.1,0c-2.3-2.1-4.3-4.5-6.2-7c-3.4-4.5-7.2-8.4-12.8-10  h-5.9c-5.6,1.7-9.4,5.6-12.8,10.1c-1.5,2.1-3.2,4.1-5,5.9c-6.4,6.4-15.7,6.5-22.2,0.2c-2.1-2-4-4.4-5.7-6.8  c-3.3-4.4-7.1-8.1-12.6-9.5h-5.4c-5.5,1.4-9.3,5-12.6,9.4c-1.6,2.2-3.3,4.3-5.1,6.2c-6.6,6.9-16.1,7.1-22.9,0.3  c-2-2-3.8-4.3-5.5-6.6c-3.3-4.4-7.1-8-12.6-9.4h-5.4c-5.6,1.5-9.4,5.3-12.7,9.8c-1.8,2.4-3.7,4.7-5.8,6.7c-6.4,6-15.5,5.9-21.8-0.3  c-1.9-1.9-3.6-4-5.2-6.1c-3.4-4.5-7.2-8.4-12.8-10.1h-5.9c-5.6,1.7-9.4,5.5-12.8,10.1c-1.5,2-3.1,4-4.8,5.7  c-6.7,6.8-16.3,6.8-23-0.1c-1.9-1.9-3.6-4-5.2-6.2c-3.3-4.4-7.1-8.1-12.6-9.6h-5.4c-5.5,1.3-9.3,5-12.7,9.4  c-2.1,2.8-4.3,5.5-6.9,7.8c-5.8,5.1-14.1,5-19.9-0.1c-2.5-2.2-4.7-4.9-6.8-7.6c-3.3-4.4-7.1-8.1-12.6-9.4h-5.4  c-5.5,1.4-9.3,5.1-12.6,9.5c-1.7,2.3-3.5,4.6-5.5,6.6c-6.4,6.4-15.7,6.5-22.2,0.2c-1.9-1.8-3.5-3.8-5.1-5.9  c-3.4-4.6-7.2-8.6-12.9-10.3h-5.9c-5.6,1.6-9.4,5.3-12.7,9.8c-1.5,2-3.1,4-4.8,5.8c-6.9,7.1-16.4,7.1-23.3,0  c-1.7-1.8-3.3-3.8-4.8-5.8c-3.3-4.5-7.1-8.2-12.7-9.8h-5.9c-5.6,1.7-9.4,5.6-12.8,10.1c-1.6,2.2-3.4,4.4-5.4,6.3  c-6.5,6.1-15.6,6-22-0.3c-2-2-3.8-4.3-5.5-6.6c-3.3-4.4-7.1-8.1-12.6-9.5h-5.4c-5.5,1.4-9.3,5-12.6,9.4c-1.7,2.2-3.4,4.4-5.3,6.4  c-6.6,6.8-16,6.8-22.8,0.2c-2-2-3.8-4.3-5.5-6.6c-3.3-4.4-7.1-8.1-12.6-9.4h-5.4c-5.5,1.5-9.3,5.2-12.5,9.5  c-1.7,2.2-3.4,4.4-5.4,6.4c-6.7,6.7-16.1,6.7-22.7-0.1c-1.8-1.8-3.3-3.7-4.9-5.7c-3.3-4.5-7.2-8.4-12.8-10.1h-5.9  c-5.6,1.6-9.4,5.5-12.8,10.1c-1.6,2.2-3.3,4.2-5.2,6.1c-6.3,6.2-15.4,6.3-21.8,0.3c-2.1-2-4-4.4-5.8-6.7c-3.3-4.4-7.2-8.2-12.7-9.8  h-5.9c-5.7,1.7-9.5,5.8-12.9,10.4c-1.5,2-3.1,4-4.9,5.7c-6.7,6.5-16,6.4-22.6-0.2c-1.9-2-3.7-4.2-5.4-6.4  c-3.3-4.4-7.1-8.1-12.6-9.5h-5.4c-5.5,1.4-9.3,5.1-12.6,9.5c-1.7,2.3-3.5,4.6-5.5,6.6c-6.3,6.3-15.4,6.6-21.9,0.4  c-2.3-2.1-4.2-4.6-6.1-7.1c-3.3-4.4-7.1-8-12.7-9.4h-5.4c-5.6,1.5-9.4,5.3-12.7,9.8c-1.7,2.3-3.5,4.6-5.6,6.6  c-6.4,6.2-15.6,6.1-22-0.1c-1.9-1.9-3.6-4-5.2-6.1c-3.4-4.5-7.2-8.4-12.8-10.1H920c-5.6,1.7-9.4,5.5-12.8,10.1  c-1.6,2.2-3.3,4.2-5.2,6.1c-6.3,6.2-15.6,6.3-22,0.1c-2-2-3.8-4.3-5.6-6.5c-3.4-4.4-7.2-8.2-12.7-9.8h-5.9  c-5.7,1.7-9.5,5.8-12.9,10.4c-1.8,2.4-3.7,4.6-5.9,6.6c-5.8,5.2-14.3,5.3-20.1,0.1c-2.5-2.2-4.7-4.9-6.7-7.6  c-3.4-4.4-7.1-8.1-12.6-9.5H792c-5.5,1.4-9.3,5.1-12.6,9.5c-1.7,2.3-3.5,4.6-5.5,6.6c-6.3,6.3-15.4,6.6-21.9,0.4  c-2.3-2.1-4.2-4.6-6.1-7.1c-3.3-4.4-7.1-8-12.7-9.4h-5.4c-5.6,1.5-9.4,5.3-12.7,9.8c-1.7,2.3-3.5,4.6-5.6,6.5  c-6.4,6.2-15.6,6.1-22-0.1c-1.9-1.9-3.6-4-5.2-6.1c-3.4-4.5-7.2-8.4-12.8-10.1h-5.9c-5.6,1.7-9.4,5.5-12.8,10.1  c-1.7,2.3-3.6,4.5-5.6,6.5c-6.2,5.8-15.2,5.8-21.4-0.1c-2.1-2-4-4.4-5.8-6.7c-3.4-4.4-7.2-8.2-12.7-9.8h-5.9  c-5.7,1.7-9.5,5.8-12.9,10.4c-1.4,2-3,3.8-4.7,5.5c-6.6,6.7-16.2,6.7-22.8,0c-1.9-2-3.7-4.2-5.4-6.4c-3.3-4.4-7.1-8.1-12.6-9.5  h-5.4c-5.5,1.4-9.3,5.1-12.6,9.5c-1.6,2.2-3.3,4.3-5.2,6.2c-6.8,7-16.6,7-23.3-0.1c-1.6-1.6-3-3.4-4.3-5.2  c-3.4-4.6-7.2-8.7-12.9-10.4h-5.9c-5.6,1.5-9.4,5.3-12.7,9.8c-1.7,2.3-3.5,4.6-5.6,6.5c-6.4,6.2-15.6,6.1-22-0.1  c-1.9-1.9-3.6-4-5.2-6.1C422.5,6,418.6,2.1,413,0.5h-5.9c-5.6,1.7-9.4,5.6-12.8,10.1c-1.8,2.4-3.8,4.8-6.1,6.8  c-5.8,5.3-14.4,5.4-20.3,0.1c-2.4-2.1-4.4-4.7-6.4-7.2c-3.4-4.4-7.2-8.2-12.7-9.8h-5.4c-5.6,1.3-9.4,5-12.7,9.4  c-1.7,2.2-3.4,4.4-5.3,6.4c-6.8,6.9-16.4,6.9-23.1-0.1c-1.9-1.9-3.5-4-5.2-6.2c-3.3-4.4-7.1-8.1-12.6-9.5h-5.4  c-5.5,1.4-9.3,5.1-12.6,9.5c-1.6,2.2-3.3,4.3-5.2,6.2c-6.8,7-16.5,7-23.3-0.1c-1.8-1.9-3.5-4.1-5.2-6.2c-3.3-4.4-7.1-8-12.7-9.4  h-5.4c-5.6,1.5-9.4,5.3-12.7,9.8c-1.8,2.4-3.8,4.8-6,6.9c-6.1,5.7-14.9,5.7-21,0.1c-2.2-2-4.1-4.3-5.8-6.7  c-3.4-4.5-7.2-8.4-12.8-10.1h-5.9c-5.6,1.6-9.4,5.5-12.8,10.1c-1.6,2.1-3.2,4.1-5,5.9c-6.7,6.6-16,6.6-22.6,0  c-1.9-1.9-3.6-4-5.2-6.2c-3.3-4.5-7.2-8.2-12.7-9.8h-5.9c-5.7,1.7-9.5,5.7-12.9,10.3c-1.5,2-3.1,4-4.9,5.7  c-6.7,6.5-16,6.5-22.6-0.2c-1.9-2-3.7-4.2-5.4-6.4c-3.3-4.4-7.1-8.1-12.6-9.5L28.1,0.6z"></path></g></svg>